<?xml version="1.0" ?><!DOCTYPE svg  PUBLIC '-//W3C//DTD SVG 1.1//EN'  'http://www.w3.org/Graphics/SVG/1.1/DTD/svg11.dtd'><svg enable-background="new 0 0 128 128" id="Слой_1" version="1.1" viewBox="0 0 128 128" xml:space="preserve" xmlns="http://www.w3.org/2000/svg" xmlns:xlink="http://www.w3.org/1999/xlink"><g><g><path d="M96.4,124H31.6c-5.3,0-9-5.3-7.1-10.2L34,87.9c1.1-3,3.9-5,7.1-5h45.7c3.2,0,6,2,7.1,5l9.6,25.9    C105.4,118.7,101.7,124,96.4,124z" fill="#BFE6F4"/></g><g><path d="M96.4,125.2H31.6c-2.9,0-5.6-1.4-7.3-3.8c-1.7-2.4-2-5.4-1-8.1l9.6-25.9c1.3-3.5,4.6-5.8,8.3-5.8h45.7    c3.7,0,7,2.3,8.3,5.8l9.6,25.9c1,2.7,0.6,5.8-1,8.1C102,123.8,99.3,125.2,96.4,125.2z M41.2,84.2c-2.6,0-5,1.7-6,4.1l-9.6,25.9    c-0.7,2-0.5,4.1,0.7,5.8s3.1,2.7,5.2,2.7h64.8c2.1,0,4-1,5.2-2.7s1.5-3.9,0.7-5.8l-9.6-25.9c-0.9-2.5-3.3-4.1-6-4.1H41.2z" fill="#62345B"/></g><g><path d="M64,118.2c-0.7,0-1.2-0.6-1.2-1.2v-9c0-0.7,0.6-1.2,1.2-1.2s1.2,0.6,1.2,1.2v9    C65.2,117.7,64.7,118.2,64,118.2z" fill="#62345B"/></g><g><path d="M64,118.2c-0.3,0-0.6-0.1-0.9-0.4l-4-4c-0.5-0.5-0.5-1.3,0-1.8s1.3-0.5,1.8,0l3.1,3.1l3.1-3.1    c0.5-0.5,1.3-0.5,1.8,0s0.5,1.3,0,1.8l-4,4C64.6,118.1,64.3,118.2,64,118.2z" fill="#62345B"/></g><g><path d="M88,103.2h-9c-0.7,0-1.2-0.6-1.2-1.2s0.6-1.2,1.2-1.2h9c0.7,0,1.2,0.6,1.2,1.2S88.7,103.2,88,103.2z" fill="#62345B"/></g><g><path d="M84,106.2c-0.4,0-0.8-0.2-1-0.5c-0.4-0.6-0.3-1.3,0.2-1.8l2.7-2l-2.7-2c-0.6-0.4-0.7-1.2-0.2-1.8    c0.4-0.6,1.2-0.7,1.8-0.2l4,3c0.3,0.2,0.5,0.6,0.5,1s-0.2,0.8-0.5,1l-4,3C84.5,106.2,84.3,106.2,84,106.2z" fill="#62345B"/></g><g><path d="M49,103.2h-9c-0.7,0-1.2-0.6-1.2-1.2s0.6-1.2,1.2-1.2h9c0.7,0,1.2,0.6,1.2,1.2S49.7,103.2,49,103.2z" fill="#62345B"/></g><g><path d="M44,106.2c-0.3,0-0.5-0.1-0.7-0.2l-4-3c-0.3-0.2-0.5-0.6-0.5-1s0.2-0.8,0.5-1l4-3c0.6-0.4,1.3-0.3,1.8,0.2    c0.4,0.6,0.3,1.3-0.2,1.8l-2.7,2l2.7,2c0.6,0.4,0.7,1.2,0.2,1.8C44.8,106.1,44.4,106.2,44,106.2z" fill="#62345B"/></g><g opacity="0.2"><path d="M87.6,97.7c0,4.2-6.8,7.6-15.2,7.6H64c0-4.2,14.1-14.8,16.4-14.1C84.7,92.6,87.6,95,87.6,97.7z" fill="#62345B"/></g><g><path d="M102.8,42.8C102.8,21.4,85.4,4,64,4S25.2,21.4,25.2,42.8c0,0.7,0,1.4,0.1,2c1.1,21.8,18.8,47.7,36.2,58.5    c0.8,0.5,1.7,0.7,2.6,0.7l0,0c0.9,0,1.7-0.2,2.5-0.7c17.4-10.7,35.1-36.7,36.2-58.5C102.8,44.1,102.8,43.5,102.8,42.8z" fill="#EE7F8F"/></g><g opacity="0.2"><path d="M64,4c-1.1,0-2.3,0.1-3.4,0.2C80.4,5.9,96,22.5,96,42.8c0,0.7,0,1.3-0.1,2c-1,21.4-18.2,46.9-35.3,57.9    c0.3,0.2,0.6,0.4,0.9,0.6c0.8,0.5,1.7,0.7,2.6,0.7c0.9,0,1.7-0.2,2.5-0.7c17.4-10.7,35.1-36.7,36.2-58.5c0-0.7,0.1-1.3,0.1-2    C102.8,21.4,85.4,4,64,4z" fill="#62345B"/></g><g><path d="M64,105.2c-1.1,0-2.3-0.3-3.2-0.9C44,94,25.1,68.3,24,44.9c0-0.7-0.1-1.4-0.1-2.1c0-22.1,18-40,40-40    s40,18,40,40c0,0.7,0,1.4-0.1,2.1c-1.1,23.4-20,49.1-36.8,59.5C66.3,104.9,65.2,105.2,64,105.2C64.1,105.2,64,105.2,64,105.2z     M64,5.2c-20.7,0-37.5,16.8-37.5,37.5c0,0.7,0,1.3,0.1,2c1.1,21.9,19.3,47.4,35.6,57.5c0.5,0.3,1.2,0.5,1.9,0.5v1.2l0-1.3    c0.7,0,1.3-0.2,1.8-0.5c16.3-10.1,34.5-35.6,35.6-57.5c0-0.7,0.1-1.3,0.1-2C101.5,22.1,84.7,5.2,64,5.2z" fill="#62345B"/></g><g><circle cx="64" cy="42.8" fill="#F7F4CD" r="30.6"/></g><g><path d="M64,74.7c-17.6,0-31.9-14.3-31.9-31.9S46.4,10.9,64,10.9s31.9,14.3,31.9,31.9S81.6,74.7,64,74.7z M64,13.4    c-16.2,0-29.4,13.2-29.4,29.4S47.8,72.2,64,72.2S93.4,59,93.4,42.8S80.2,13.4,64,13.4z" fill="#62345B"/></g></g></svg>